<svg height="1em" viewBox="0 0 12 12" fill="none" xmlns="http://www.w3.org/2000/svg"><path d="M3.44792 3.23342L5.08125 1.11883C5.19792 0.963279 5.33656 0.84914 5.49717 0.776418C5.65778 0.703696 5.82539 0.66714 6 0.666751C6.17461 0.666362 6.34242 0.702918 6.50342 0.776418C6.66442 0.849918 6.80286 0.964057 6.91875 1.11883L8.55208 3.23342L11.0312 4.06467C11.284 4.14245 11.4833 4.28595 11.6292 4.49517C11.775 4.70439 11.8479 4.9352 11.8479 5.18758C11.8479 5.30425 11.8308 5.42092 11.7966 5.53758C11.7624 5.65425 11.7066 5.76606 11.6292 5.873L10.025 8.148L10.0833 10.5397C10.0931 10.8799 9.98125 11.1668 9.74792 11.4001C9.51458 11.6334 9.24236 11.7501 8.93125 11.7501C8.91181 11.7501 8.80486 11.7355 8.61042 11.7063L6 10.9772L3.38958 11.7063C3.34097 11.7258 3.2875 11.738 3.22917 11.7431C3.17083 11.7481 3.11736 11.7505 3.06875 11.7501C2.75764 11.7501 2.48542 11.6334 2.25208 11.4001C2.01875 11.1668 1.90694 10.8799 1.91667 10.5397L1.975 8.13342L0.385417 5.873C0.307639 5.76606 0.251639 5.65425 0.217417 5.53758C0.183195 5.42092 0.166278 5.30425 0.166667 5.18758C0.166667 4.94453 0.23725 4.71858 0.378417 4.50975C0.519583 4.30092 0.716361 4.15256 0.96875 4.06467L3.44792 3.23342ZM4.1625 4.23967L1.33333 5.173L3.14167 7.78342L3.08333 10.5688L6 9.76675L8.91667 10.5834L8.85833 7.78342L10.6667 5.20217L7.8375 4.23967L6 1.83342L4.1625 4.23967Z" fill="currentColor"/></svg>