<?xml version="1.0" encoding="UTF-8"?>
<svg height="1em" viewBox="0 0 18 20" fill="none" xmlns="http://www.w3.org/2000/svg">
    <path d="M0.574463 17V15H2.69274V8C2.69274 6.61667 3.13404 5.38767 4.01666 4.313C4.89927 3.23834 6.04667 2.534 7.45886 2.2V1.5C7.45886 1.08334 7.61349 0.729336 7.92276 0.438002C8.23203 0.146669 8.60696 0.000668939 9.04756 2.27273e-06C9.48816 -0.000664394 9.86345 0.145336 10.1734 0.438002C10.4834 0.730669 10.6377 1.08467 10.6363 1.5V2.2C12.0485 2.53334 13.1958 3.23767 14.0785 4.313C14.9611 5.38834 15.4024 6.61734 15.4024 8V15H17.5207V17H0.574463ZM9.04756 20C8.46504 20 7.96654 19.8043 7.55206 19.413C7.13758 19.0217 6.92999 18.5507 6.92929 18H11.1658C11.1658 18.55 10.9586 19.021 10.5441 19.413C10.1296 19.805 9.63079 20.0007 9.04756 20ZM4.81101 15H13.2841V8C13.2841 6.9 12.8693 5.95834 12.0396 5.175C11.21 4.39167 10.2126 4 9.04756 4C7.88251 4 6.88516 4.39167 6.0555 5.175C5.22584 5.95834 4.81101 6.9 4.81101 8V15Z" fill="currentColor"/>
</svg>