<?xml version="1.0" encoding="UTF-8"?>
<svg height="1em" viewBox="0 0 12 11" fill="none" xmlns="http://www.w3.org/2000/svg"><path d="M9.5 6.08325V4.91659H11.8333V6.08325H9.5ZM10.2 10.1666L8.33334 8.76659L9.03334 7.83325L10.9 9.23325L10.2 10.1666ZM9.03334 3.16659L8.33334 2.23325L10.2 0.833252L10.9 1.76659L9.03334 3.16659ZM1.91667 9.58325V7.24992H1.33334C1.01251 7.24992 0.73795 7.13578 0.509672 6.9075C0.281394 6.67922 0.167061 6.40447 0.166672 6.08325V4.91659C0.166672 4.59575 0.281005 4.3212 0.509672 4.09292C0.738338 3.86464 1.01289 3.75031 1.33334 3.74992H3.66667L6.58334 1.99992V8.99992L3.66667 7.24992H3.08334V9.58325H1.91667ZM5.41667 6.92909V4.07075L3.9875 4.91659H1.33334V6.08325H3.9875L5.41667 6.92909ZM7.16667 7.45409V3.54575C7.42917 3.77909 7.64073 4.06356 7.80134 4.39917C7.96195 4.73478 8.04206 5.1017 8.04167 5.49992C8.04128 5.89814 7.96098 6.26525 7.80075 6.60125C7.64053 6.93725 7.42917 7.22153 7.16667 7.45409Z" fill="currentColor"/></svg>