<?xml version="1.0" encoding="UTF-8"?>
<svg height="1em" width="1em" viewBox="0 0 11 11" fill="none" xmlns="http://www.w3.org/2000/svg">
    <path d="M6.08333 3.16667V0.833333C6.08333 0.668056 6.13933 0.529611 6.25133 0.418C6.36333 0.306389 6.50178 0.250389 6.66667 0.25H10.1667C10.3319 0.25 10.4706 0.306 10.5826 0.418C10.6946 0.53 10.7504 0.668444 10.75 0.833333V3.16667C10.75 3.33194 10.694 3.47058 10.582 3.58258C10.47 3.69458 10.3316 3.75039 10.1667 3.75H6.66667C6.50139 3.75 6.36294 3.694 6.25133 3.582C6.13972 3.47 6.08372 3.33156 6.08333 3.16667ZM0.25 5.5V0.833333C0.25 0.668056 0.306 0.529611 0.418 0.418C0.53 0.306389 0.668444 0.250389 0.833333 0.25H4.33333C4.49861 0.25 4.63725 0.306 4.74925 0.418C4.86125 0.53 4.91706 0.668444 4.91667 0.833333V5.5C4.91667 5.66528 4.86067 5.80392 4.74867 5.91592C4.63667 6.02792 4.49822 6.08372 4.33333 6.08333H0.833333C0.668056 6.08333 0.529611 6.02733 0.418 5.91533C0.306389 5.80333 0.250389 5.66489 0.25 5.5ZM6.08333 10.1667V5.5C6.08333 5.33472 6.13933 5.19628 6.25133 5.08467C6.36333 4.97306 6.50178 4.91706 6.66667 4.91667H10.1667C10.3319 4.91667 10.4706 4.97267 10.5826 5.08467C10.6946 5.19667 10.7504 5.33511 10.75 5.5V10.1667C10.75 10.3319 10.694 10.4706 10.582 10.5826C10.47 10.6946 10.3316 10.7504 10.1667 10.75H6.66667C6.50139 10.75 6.36294 10.694 6.25133 10.582C6.13972 10.47 6.08372 10.3316 6.08333 10.1667ZM0.25 10.1667V7.83333C0.25 7.66806 0.306 7.52961 0.418 7.418C0.53 7.30639 0.668444 7.25039 0.833333 7.25H4.33333C4.49861 7.25 4.63725 7.306 4.74925 7.418C4.86125 7.53 4.91706 7.66844 4.91667 7.83333V10.1667C4.91667 10.3319 4.86067 10.4706 4.74867 10.5826C4.63667 10.6946 4.49822 10.7504 4.33333 10.75H0.833333C0.668056 10.75 0.529611 10.694 0.418 10.582C0.306389 10.47 0.250389 10.3316 0.25 10.1667ZM1.41667 4.91667H3.75V1.41667H1.41667V4.91667ZM7.25 9.58333H9.58333V6.08333H7.25V9.58333ZM7.25 2.58333H9.58333V1.41667H7.25V2.58333ZM1.41667 9.58333H3.75V8.41667H1.41667V9.58333Z" fill="currentColor"/>
</svg>