<?xml version="1.0" encoding="UTF-8"?>
<svg height="1em" viewBox="0 0 10 14" fill="none" xmlns="http://www.w3.org/2000/svg"><path d="M1.9375 13.3332C1.5 13.3332 1.12336 13.1849 0.807586 12.8881C0.491808 12.5914 0.333725 12.2245 0.333336 11.7874V3.64989C0.333336 3.28044 0.447669 2.94989 0.676336 2.65822C0.905002 2.36655 1.20386 2.18183 1.57292 2.10405L7.33334 0.966553V10.2999L1.80625 11.4082C1.71875 11.4277 1.64584 11.4739 1.5875 11.5471C1.52917 11.6202 1.5 11.7003 1.5 11.7874C1.5 11.8943 1.54375 11.9844 1.63125 12.0575C1.71875 12.1306 1.82084 12.1669 1.9375 12.1666H8.5V2.83322H9.66667V13.3332H1.9375ZM3.25 9.9353L6.16667 9.36655V2.39572L3.25 2.96447V9.9353ZM2.08334 10.1686V3.1978L1.86459 3.24155C1.75764 3.261 1.67014 3.30728 1.60209 3.38039C1.53403 3.4535 1.5 3.54333 1.5 3.64989V10.3145C1.54861 10.295 1.59975 10.2781 1.65342 10.2637C1.70709 10.2493 1.75803 10.2371 1.80625 10.227L2.08334 10.1686Z" fill="currentColor"/></svg>